<?xml version="1.0" encoding="UTF-8" standalone="no"?>
<!-- Created with Inkscape (http://www.inkscape.org/) -->

<svg
   width="210mm"
   height="297mm"
   viewBox="0 0 210.0000048319498 296.9999916076659"
   version="1.1"
   id="svg5"
   inkscape:version="1.1.2 (0a00cf5339, 2022-02-04, custom)"
   sodipodi:docname="test2.svg"
   xmlns:inkscape="http://www.inkscape.org/namespaces/inkscape"
   xmlns:sodipodi="http://sodipodi.sourceforge.net/DTD/sodipodi-0.dtd"
   xmlns="http://www.w3.org/2000/svg"
   xmlns:svg="http://www.w3.org/2000/svg">
  <sodipodi:namedview
     id="namedview7"
     pagecolor="#505050"
     bordercolor="#eeeeee"
     borderopacity="1"
     inkscape:pageshadow="0"
     inkscape:pageopacity="0"
     inkscape:pagecheckerboard="0"
     inkscape:document-units="mm"
     showgrid="false"
     inkscape:zoom="0.6636854657687989"
     inkscape:cx="397.0254188025156"
     inkscape:cy="560.5064736035514"
     inkscape:window-width="1920"
     inkscape:window-height="1017"
     inkscape:window-x="-8"
     inkscape:window-y="-8"
     inkscape:window-maximized="1"
     inkscape:current-layer="layer1"
     scale-x="1" />
  <defs
     id="defs2" />
  <g
     inkscape:label="layer 1"
     inkscape:groupmode="layer"
     id="layer1">
    <path
       style="fill:none;stroke:#000000;stroke-width:0.264583px;stroke-linecap:butt;stroke-linejoin:miter;stroke-opacity:1"
       d="M 46.24429530201342,129.1651006711409 C 48.19972982526068,122.721764544973 55.83932688847916,120.8906824908371 61.79194630872486,120.3946308724832 67.80678271129166,119.8933945056027 71.50510266650667,119.9959731543624 77.33959731543625,119.9959731543624 79.99731543624162,119.9959731543624 82.66739191028257,119.7399705962105 85.31275167785236,119.9959731543624 85.95414021402993,120.0580430127022 91.905633725887,121.7335097322468 92.88724832214768,122.3879194630873 95.68305430727527,124.251790119839 97.42758397020108,133.2932078054238 96.47516778523493,136.3409395973154 96.1012373891497,137.5375168647881 95.21587540531349,138.5138988967214 94.48187919463089,139.5302013422819 91.35319892283742,143.8622201801497 87.99486772819365,146.8542152739454 82.92080536912752,148.6993288590604 81.97145227157709,149.0445481672605 76.19515478951912,151.1170404820079 74.54899328859059,150.2939597315436 74.19154626047026,150.1152362174835 70.84461303754872,145.107827380085 70.56241610738256,144.7127516778523 68.15245863292985,141.3388112136185 66.46587365997227,137.8599189070781 67.37315436241611,133.5503355704698 69.03628709559653,125.6504550878627 78.07035323850057,120.4037389588685 84.91409395973154,117.6040268456376 85.29204951405488,117.4494086643235 89.86312916036297,115.6933095466245 91.29261744966443,116.4080536912752 93.3069314044677,117.4152106686768 97.47123262549696,122.9516222295185 98.46845637583894,124.7798657718121 100.343522392443,128.2174868022529 102.5287668382055,133.0007736259064 101.6577181208054,137.1382550335571 99.13934951142924,149.1005059280937 83.89911407056449,150.4035074115899 74.1503355704698,149.496644295302 71.83955940673789,149.2816883730944 69.62078683232097,148.4799760579372 67.37315436241611,147.9020134228188 63.58123980729621,146.9269496800737 56.37618313937782,146.0996869006374 54.61610738255036,141.5234899328859 54.07812049339099,140.1247240210715 54.11261109546072,135.2562519377745 54.21744966442953,134.3476510067114 55.58754289773192,122.4735096514242 65.4013496878651,113.7222683300892 76.94093959731543,111.6241610738255 79.16740319792907,111.2193495100776 81.45576706377602,111.2781162334162 83.71812080536915,111.2255033557047 91.80053388026529,111.0375402609397 101.368792925826,110.7555380555218 107.2389261744967,117.6040268456376 111.7808153927784,122.9028976002996 113.3928996335476,132.8483001166654 111.6241610738255,139.5302013422819 110.4444055340554,143.9870556036355 106.5893901745221,148.9592981476337 102.8536912751678,151.489932885906 98.06741443534066,154.7322494548212 91.09096729455845,155.2426162454364 85.71140939597313,155.4765100671141 83.05288279993463,155.5920981799854 80.15549139998744,156.1905484541755 77.73825503355705,155.0778523489933 71.54423846586209,152.2266383733877 65.61818151429787,148.5276684088984 60.59597315436242,143.9154362416108 57.15134687536218,140.7520039445697 56.73658954351089,128.2816155475478 59.00134228187921,124.3812080536913 60.37046037899555,122.0232824419909 62.5034999192824,120.1653850593358 64.58255033557044,118.4013422818792 73.99188344290489,110.4176657059591 85.17768797557528,108.0362416107383 97.2724832214765,108.0362416107383"
       id="path494" />
  </g>
</svg>
