<?xml version="1.0" encoding="UTF-8" standalone="no"?>
<!-- Created with Inkscape (http://www.inkscape.org/) -->

<svg
   width="210mm"
   height="297mm"
   viewBox="0 0 210.0000048319498 296.9999916076659"
   version="1.1"
   id="svg5"
   inkscape:version="1.1.2 (0a00cf5339, 2022-02-04, custom)"
   sodipodi:docname="test1.svg"
   xmlns:inkscape="http://www.inkscape.org/namespaces/inkscape"
   xmlns:sodipodi="http://sodipodi.sourceforge.net/DTD/sodipodi-0.dtd"
   xmlns="http://www.w3.org/2000/svg"
   xmlns:svg="http://www.w3.org/2000/svg">
  <sodipodi:namedview
     id="namedview7"
     pagecolor="#505050"
     bordercolor="#eeeeee"
     borderopacity="1"
     inkscape:pageshadow="0"
     inkscape:pageopacity="0"
     inkscape:pagecheckerboard="0"
     inkscape:document-units="mm"
     showgrid="false"
     inkscape:zoom="0.6636854657687989"
     inkscape:cx="397.0254188025156"
     inkscape:cy="560.5064736035514"
     inkscape:window-width="1920"
     inkscape:window-height="1017"
     inkscape:window-x="-8"
     inkscape:window-y="-8"
     inkscape:window-maximized="1"
     inkscape:current-layer="layer1"
     scale-x="1" />
  <defs
     id="defs2" />
  <g
     inkscape:label="layer 1"
     inkscape:groupmode="layer"
     id="layer1">
    <path
       style="fill:none;stroke:#000000;stroke-width:0.264583px;stroke-linecap:butt;stroke-linejoin:miter;stroke-opacity:1"
       d="m 46.24429530201342,129.1651006711409 c 1.95543452324726,-6.4433361261679 9.59503158646575,-8.2744181803038 15.54765100671144,-8.7704697986577 6.0148364025668,-0.5012363668805 9.71315635778181,-0.3986577181208 15.54765100671139,-0.3986577181208 2.65771812080537,0 5.32779459484632,-0.2560025581519 7.97315436241611,0 0.64138853617757,0.06206985834 6.59288204803464,1.7375365778844 7.57449664429532,2.3919463087249 2.79580598512759,1.8638706567517 4.5403356480534,10.9052883423365 3.58791946308725,13.9530201342281 -0.37393039608523,1.1965772674727 -1.25929237992143,2.172959299406 -1.99328859060404,3.1892617449665 -3.12868027179347,4.3320188378678 -6.48701146643724,7.3240139316635 -11.56107382550337,9.1691275167785 -0.94935309755043,0.3452193082001 -6.7256505796084,2.4177116229475 -8.37181208053693,1.5946308724832 -0.35744702812033,-0.1787235140601 -3.70438025104187,-5.1861323514586 -3.98657718120803,-5.5812080536913 -2.40995747445271,-3.3739404642338 -4.09654244741029,-6.8528327707742 -3.18926174496644,-11.1624161073825 1.66313273318042,-7.8998804826071 10.69719887608446,-13.1465966116013 17.54093959731543,-15.9463087248322 0.37795555432334,-0.1546181813141 4.94903520063143,-1.9107172990131 6.37852348993289,-1.1959731543624 2.01431395480327,1.0071569774016 6.17861517583253,6.5435685382433 7.17583892617451,8.3718120805369 1.87506601660407,3.4376210304408 4.06031046236656,8.2209078540943 3.18926174496646,12.358389261745 -2.51836860937615,11.9622508945366 -17.7586040502409,13.2652523780328 -27.50738255033559,12.3583892617449 -2.31077616373192,-0.2149559222076 -4.52954873814883,-1.0166682373648 -6.77718120805369,-1.5946308724832 -3.79191455511991,-0.9750637427451 -10.99697122303829,-1.8023265221814 -12.75704697986576,-6.3785234899329 -0.53798688915937,-1.3987659118144 -0.50349628708964,-6.2672379951114 -0.39865771812083,-7.1758389261745 1.37009323330239,-11.8741413552872 11.18390002343558,-20.6253826766222 22.72348993288589,-22.7234899328859 2.22646360061364,-0.4048115637479 4.51482746646057,-0.3460448404093 6.7771812080537,-0.3986577181208 8.08241307489614,-0.187963094765 17.65067212045687,-0.4699653001829 23.52080536912757,6.3785234899329 4.5418892182817,5.298870754662 6.1539734590509,15.2442732710278 4.3852348993288,21.9261744966443 -1.1797555397701,4.4568542613536 -5.0347708993034,9.4290968053518 -8.7704697986577,11.9597315436241 -4.78627683982715,3.2423165689152 -11.76272398060938,3.7526833595304 -17.14228187919468,3.9865771812081 -2.6585265960385,0.1155881128713 -5.5559179959857,0.7140383870614 -7.9731543624161,-0.3986577181208 -6.19401656769496,-2.8512139756056 -12.12007351925918,-6.5501839400949 -17.14228187919461,-11.1624161073825 -3.44462627900024,-3.1634322970411 -3.85938361085153,-15.633820694063 -1.5946308724832,-19.5342281879195 1.36911809711634,-2.3579256117004 3.50215763740318,-4.2158229943555 5.58120805369124,-5.9798657718121 9.40933310733445,-7.9836765759201 20.59513764000483,-10.3651006711409 32.68993288590606,-10.3651006711409"
       id="path494" />
  </g>
</svg>
